<svg width="900" height="900" viewBox="0 0 900 900" fill="none" xmlns="http://www.w3.org/2000/svg">
  <rect width="900" height="900" rx="20" fill="#0E0F11" />
  <path
    d="M652.6 291.3C652.6 295.5 650.967 299 647.7 301.8C644.9 304.133 641.633 305.3 637.9 305.3C633.233 305.3 630.2 304.367 628.8 302.5C627.4 300.167 626 297.133 624.6 293.4C616.667 268.2 604.533 249.533 588.2 237.4C571.867 225.267 550.167 219.2 523.1 219.2H395.7V429.9C417.167 429.433 438.633 429.2 460.1 429.2C481.567 428.733 503.033 427.567 524.5 425.7C538.5 424.767 552.267 423.133 565.8 420.8C579.333 418.467 592.867 416.133 606.4 413.8H607.8C608.733 413.8 609.667 414.267 610.6 415.2C612 415.667 612.7 416.367 612.7 417.3C612.7 420.567 611.067 426.4 607.8 434.8C604.533 442.733 602.2 448.333 600.8 451.6C598.467 457.2 594.967 460 590.3 460C587.033 460 583.533 460 579.8 460C576.533 459.533 573.033 459.067 569.3 458.6C552.967 456.733 536.4 455.8 519.6 455.8C503.267 455.333 486.933 455.1 470.6 455.1C464.533 455.1 457.3 455.1 448.9 455.1C440.5 455.1 432.1 455.8 423.7 457.2C415.767 458.6 409 461.633 403.4 466.3C398.267 470.5 395.7 477.033 395.7 485.9V644.1C395.7 649.233 396.867 654.133 399.2 658.8C402 663 405.267 666.967 409 670.7C416 676.767 424.633 680.5 434.9 681.9C445.633 682.833 455.433 683.3 464.3 683.3C470.833 683.3 474.1 686.8 474.1 693.8C474.1 701.267 469.9 705 461.5 705C454.033 705 446.333 704.767 438.4 704.3C430.467 703.367 422.533 702.9 414.6 702.9C405.267 702.9 395.7 702.9 385.9 702.9C376.567 702.433 367.233 702.2 357.9 702.2C342.033 702.2 326.167 702.9 310.3 704.3C294.9 705.233 279.033 705.7 262.7 705.7C260.833 705.7 258.733 705 256.4 703.6C254.533 701.733 253.6 699.633 253.6 697.3C253.6 694.033 253.833 691.467 254.3 689.6C255.233 687.267 257.567 685.867 261.3 685.4C265.033 684.467 269 684 273.2 684C277.4 683.533 281.367 683.067 285.1 682.6C302.367 678.867 313.1 672.1 317.3 662.3C321.967 652.033 324.3 638.967 324.3 623.1V248.6C324.3 237.867 320.567 230.867 313.1 227.6C305.633 224.333 296.767 222.7 286.5 222.7C276.7 222.7 268.3 222.7 261.3 222.7C252.433 222.7 248 218.733 248 210.8C248 207.067 248.467 203.8 249.4 201C250.8 198.2 253.6 196.8 257.8 196.8C266.2 196.8 274.6 197.033 283 197.5C291.867 197.967 300.5 198.2 308.9 198.2H432.1C455.433 198.2 478.767 197.967 502.1 197.5C525.9 196.567 549.467 196.1 572.8 196.1C594.267 196.1 615.733 195.4 637.2 194C639.533 208 642.567 224.333 646.3 243C650.5 261.667 652.6 277.767 652.6 291.3Z"
    fill="white" />
</svg>